<svg width="22" height="22" viewBox="0 0 22 22" fill="none" xmlns="http://www.w3.org/2000/svg">
<path d="M9.81148 4.03437C10.1606 2.84919 11.8394 2.84919 12.1885 4.03437C12.4346 4.86962 13.4427 5.19719 14.1328 4.66609C15.1119 3.91249 16.47 4.89922 16.0558 6.06328C15.7639 6.88364 16.387 7.74124 17.2574 7.71715C18.4925 7.68298 19.0113 9.27955 17.992 9.97785C17.2736 10.47 17.2736 11.53 17.992 12.0222C19.0113 12.7205 18.4925 14.317 17.2574 14.2828C16.387 14.2588 15.7639 15.1164 16.0558 15.9367C16.47 17.1008 15.1119 18.0875 14.1328 17.3339C13.4427 16.8028 12.4346 17.1304 12.1885 17.9656C11.8394 19.1508 10.1606 19.1508 9.81148 17.9656C9.56542 17.1304 8.55725 16.8028 7.86724 17.3339C6.88814 18.0875 5.53001 17.1008 5.94417 15.9367C6.23605 15.1164 5.61297 14.2588 4.74256 14.2828C3.5075 14.317 2.98874 12.7205 4.00802 12.0222C4.72635 11.53 4.72635 10.47 4.00802 9.97785C2.98874 9.27955 3.5075 7.68298 4.74256 7.71715C5.61297 7.74124 6.23605 6.88364 5.94417 6.06328C5.53001 4.89922 6.88814 3.91249 7.86724 4.66609C8.55725 5.19719 9.56542 4.86962 9.81148 4.03437Z" fill="#5A87F9"/>
<path d="M8 10.5L10.5 13L14.5 9" stroke="#C3ADF4" stroke-width="2"/>
</svg>
