<svg width="25" height="21" viewBox="0 0 25 21" fill="none" xmlns="http://www.w3.org/2000/svg">
<path d="M24.125 1.39752C24.0242 1.12878 23.9235 1.06159 23.7891 1.028C23.4196 0.893632 22.8485 1.09518 22.8485 1.09518C22.8485 1.09518 1.65178 8.72063 0.442459 9.56044C0.173721 9.7284 0.106537 9.86277 0.0393529 9.96354C-0.162201 10.5682 0.476053 10.8369 0.476053 10.8369L5.95159 12.6173C5.95159 12.6173 6.15314 12.6509 6.22033 12.6173C7.46324 11.8447 18.7167 4.72315 19.3549 4.488C19.4557 4.45441 19.5229 4.488 19.5229 4.55519C19.2541 5.46218 9.47878 14.1626 9.47878 14.1626C9.47878 14.1626 9.44519 14.1962 9.4116 14.2634L8.90771 19.6717C8.90771 19.6717 8.70616 21.3177 10.3522 19.6717C11.5279 18.496 12.67 17.5218 13.2075 17.0515C15.0887 18.3616 17.1042 19.7725 17.9776 20.5451C18.4143 20.9146 18.7838 20.9818 19.0862 20.9818C19.926 20.9482 20.1611 20.0412 20.1611 20.0412C20.1611 20.0412 24.0242 4.488 24.1586 2.40528C24.1586 2.20373 24.1922 2.06936 24.1922 1.93499C24.1586 1.69985 24.1586 1.49829 24.125 1.39752Z" fill="white"/>
</svg>
