<svg width="30" height="30" viewBox="0 0 30 30" fill="none" xmlns="http://www.w3.org/2000/svg">
<path d="M22.0563 19.9931C21.7502 20.8529 20.2781 21.6371 19.5731 21.7437C18.7996 21.8764 18.0059 21.8269 17.255 21.5993C16.5425 21.3784 15.8422 21.1201 15.157 20.8254C11.4631 19.2261 9.05214 15.5013 8.86985 15.2674C8.68757 15.0336 7.36686 13.2726 7.36686 11.4635C7.35668 10.8909 7.46578 10.3224 7.68723 9.79425C7.90869 9.26607 8.23764 8.78977 8.65317 8.39564C8.77595 8.25538 8.92641 8.14204 9.0951 8.06273C9.26378 7.98341 9.44705 7.93985 9.63338 7.93477C9.87758 7.93477 10.1252 7.93477 10.3384 7.93477C10.5517 7.93477 10.8681 7.84879 11.1673 8.56761C11.4665 9.28643 12.1991 11.1162 12.3023 11.2984C12.3596 11.395 12.3923 11.5041 12.3977 11.6162C12.4031 11.7283 12.381 11.84 12.3333 11.9416C12.2404 12.1622 12.1165 12.3683 11.9653 12.5538C11.7795 12.767 11.58 13.0319 11.415 13.197C11.2499 13.362 11.0401 13.5787 11.2533 13.9467C11.8111 14.8938 12.5065 15.7527 13.3169 16.4953C14.1893 17.2712 15.1902 17.8892 16.2747 18.3216C16.6428 18.5073 16.856 18.4763 17.0727 18.2287C17.2893 17.9811 17.991 17.1556 18.2386 16.7876C18.4862 16.4196 18.7304 16.4815 19.0675 16.6019C19.4045 16.7223 21.2136 17.6131 21.5816 17.7988C21.9496 17.9845 22.1938 18.0739 22.2867 18.2287C22.3796 18.3835 22.3624 19.1332 22.0528 19.9931H22.0563Z" fill="white"/>
<path fill-rule="evenodd" clip-rule="evenodd" d="M25.2688 4.32688C22.7444 1.79602 19.3857 0.269685 15.819 0.0324798C12.2523 -0.204725 8.72107 0.863399 5.88377 3.03767C3.04648 5.21195 1.09683 8.34395 0.398376 11.8496C-0.300078 15.3553 0.300341 18.9954 2.08768 22.0911L0 29.7195L7.8073 27.6559C9.96649 28.8314 12.3857 29.4475 14.8442 29.4478C17.7567 29.448 20.6039 28.5847 23.0258 26.9668C25.4477 25.349 27.3355 23.0495 28.4505 20.3588C29.5656 17.6682 29.8578 14.7074 29.2902 11.8507C28.7227 8.99398 27.3208 6.36972 25.2619 4.30969L25.2688 4.32688ZM14.8511 26.9783C12.6582 26.9742 10.5068 26.3802 8.62242 25.2587L8.17531 24.9939L3.54252 26.2079L4.78067 21.6921L4.48834 21.2278C3.04564 18.9292 2.40771 16.2163 2.67484 13.5157C2.94196 10.815 4.099 8.27974 5.96405 6.30833C7.8291 4.33692 10.2964 3.0412 12.9781 2.62486C15.6598 2.20852 18.4038 2.69517 20.7788 4.0083C23.1538 5.32144 25.0251 7.38659 26.0984 9.87913C27.1718 12.3717 27.3864 15.1502 26.7086 17.778C26.0307 20.4058 24.4988 22.7339 22.3537 24.3962C20.2085 26.0584 17.5718 26.9607 14.8579 26.9612L14.8511 26.9783Z" fill="white"/>
</svg>
